# xmcd
#
# Track frame offsets:
#  150
#  10283
#  25729
#  41957
#  51679
#  67928
#  80805
#  82756
#  92944
#  110060
#  121670
#  139835
#  157909
#
# Disc length: 2264 seconds
#
# Revision: 0
# Processed by: cddbd v1.5.2PL0 Copyright (c) Steve Scherf et al.
# Submitted via: AltoMP3_Maker 3.0
#
DISCID=aa08d60d
DTITLE=Matt Kebbell - Skinny Dip
DYEAR=1900
DGENRE=
TTITLE0=Awake
TTITLE1=Secrets in the dark
TTITLE2=In the end
TTITLE3=Brother
TTITLE4=Back home
TTITLE5=Smoking monkey
TTITLE6=Interlude
TTITLE7=Deep throat
TTITLE8=Goodbye
TTITLE9=Right and wrong
TTITLE10=Got it wrong
TTITLE11=Thumb
TTITLE12=Television
EXTD=
EXTT0=
EXTT1=
EXTT2=
EXTT3=
EXTT4=
EXTT5=
EXTT6=
EXTT7=
EXTT8=
EXTT9=
EXTT10=
EXTT11=
EXTT12=
PLAYORDER=
